<?xml version="1.0" encoding="utf-8"?>
<!-- Generator: Adobe Illustrator 23.0.6, SVG Export Plug-In . SVG Version: 6.00 Build 0)  -->
<svg version="1.1" id="Layer_1" xmlns="http://www.w3.org/2000/svg" xmlns:xlink="http://www.w3.org/1999/xlink" x="0px" y="0px"
	 viewBox="0 0 355 200" style="enable-background:new 0 0 355 200;" xml:space="preserve">
<g>
	<polygon points="9.2,188.2 9.7,188.4 11,188.5 	"/>
	<path d="M17.6,189.8c-0.2-0.1-0.1-0.1-0.4-0.1l-4.9-0.7C14.4,189.5,16.1,189.3,17.6,189.8z"/>
	<path d="M19,190.1c1.9,0.5,2.7,0.5,3.1,0.5C21.4,190.6,18.6,189.9,19,190.1z"/>
	<path d="M188,194.4c-0.2,0-0.4,0.1-0.6,0.1C187.7,194.4,187.9,194.4,188,194.4z"/>
	<path d="M231.3,185l0.4-0.2c-2,0.5-4.1,1.1-6.2,1.6c-2.1,0.5-4.2,1.1-6.4,1.5c-4.4,0.9-8.8,1.8-13.1,2.8l0.6-0.2
		c-21.8,4.2-42.1,6.9-64.1,8.3c0.3,0,0.5-0.1,0.8-0.1c-1.1,0.1-2.2,0.3-3.4,0.3c-0.3,0,0.3-0.1,0.7-0.1c-4.7,0-13.6,0.6-16.6,0.6
		c-1.3,0.1-1.9,0.1-1.2,0.2c-17.2,0.3-35.7-0.4-53.2-1.9c-0.8-0.1-1-0.2-0.7-0.2c-3.7-0.3-7.5-0.7-11.3-1c-3.8-0.5-7.6-1-11.4-1.6
		c-1.9-0.3-3.8-0.5-5.7-0.8l-5.7-1c-1.9-0.3-3.8-0.7-5.7-1c-1.9-0.3-3.8-0.7-5.7-1.1c-0.6,0,1.5,0.4,0,0.2c2.4,0.6,4.7,0.9,6.8,1.2
		c2.2,0.3,4.3,0.7,6.5,1.1l-0.6,0c3.2,0.6,0.7-0.1,4,0.6c1.3,0.3-0.3,0,0.3,0.2c3.4,0.5,6.9,1,10.4,1.5c3.5,0.5,6.9,1,10.1,1.2
		c1.6,0.3,7.4,0.8,9.9,1.2c1.8,0.1,3.6,0.3,4.3,0.3c24.2,2.1,49,2.1,73.8,0.4c2.9-0.3,5.9-0.5,9.1-0.8c3.1-0.3,6.4-0.7,9.7-1
		c1.7-0.2,3.3-0.3,5-0.5c1.7-0.2,3.4-0.4,5.1-0.7c3.4-0.5,6.8-1,10.2-1.4c0.1,0,0.1,0,0,0c4.4-0.8,10.9-2,16.2-2.9
		c1.5-0.3,3-0.7,4.4-1c4-0.8,7.9-1.6,11.9-2.4c4-0.9,7.9-1.9,11.9-2.9c2-0.5,4-0.9,5.9-1.5l5.9-1.7l5.9-1.7l3-0.8l2.9-0.9
		c15.6-4.9,31.2-10.4,45.8-17.9c4.2-2.1,8.1-4.5,12-6.9c3.8-2.5,7.5-5.1,10.9-7.9c3.4-2.8,6.7-5.8,9.7-9c3-3.2,5.7-6.7,8.2-10.3
		c4.8-7.3,8.5-15.3,10.6-23.9c1.1-4.3,1.6-8.7,1.9-13.1c0-2.2,0.1-4.5-0.1-6.7l-0.1-1.7l-0.1-0.8l-0.1-0.8c-0.2-1.1-0.4-2.2-0.6-3.4
		c0,0,0-0.3,0.2,0.7c-0.2-1.3-0.5-2.6-0.8-3.8c-0.2-0.6-0.3-1.2-0.5-1.9c-0.2-0.6-0.4-1.2-0.6-1.8c-0.4-1.2-0.8-2.4-1.3-3.5
		c-0.5-1.1-1-2.3-1.6-3.4c-2.2-4.4-5.1-8.4-8.5-12.1l0,0c-4.2-4.5-9.1-8.5-14.4-11.9c-5.3-3.4-10.9-6.4-16.7-9
		c-5.8-2.6-11.6-4.9-17.5-6.9c-1.5-0.5-2.9-1-4.3-1.6c-1.4-0.5-2.9-1-4.3-1.5c-2.9-0.9-5.8-1.8-8.6-2.7c-13.7-4.2-28.6-8-43.8-10.7
		c-15.3-2.7-30.9-4.5-46.1-5.3l0.1-0.1c-24.3-1.1-47.9-0.7-71.9,2.9c-12.4,1.5-25,4.2-37.5,7.2c-12.4,3.2-24.8,7.1-36,12.8
		c-3.5,1.7-7.1,3.8-10.7,6.3c-3.6,2.5-7,5.3-10.2,8.5c-3.1,3.2-6,6.6-8.3,10c-2.4,3.5-4.3,7-5.9,10.3c-1.6,3.4-2.8,7-3.7,10.6
		C0.4,72.9,0,76.6,0,80.3c0.1,7.5,2,14.9,5.7,21.4c3.6,6.5,8.4,12.3,14,17.2c5.6,4.9,11.8,9.1,18.4,12.7c6,3.5,12.2,6.5,18.6,9.1
		c6.3,2.7,12.8,5.1,19.3,7.3c13,4.4,26.2,7.8,39.4,10.3c12.5,2.1,26.4,4.2,40.6,4.6l-0.5-0.1c1.3,0.1,2.6,0.2,4,0.2
		c1.3,0,2.7,0,4-0.1c2.6-0.1,4.9-0.1,6.5,0.1l-0.5,0c2.7,0.1,6.2-0.6,7.9-0.4l0.4-0.1c3.2-0.2,0.4,0.1,2.9,0
		c0.9-0.1,0.3-0.2,2.3-0.2c0.2,0.2,2.2,0,4.2-0.1c2-0.2,3.9-0.4,4-0.2c-1.8,0.2,2.8-0.1-1.2,0.4c1.1-0.1,6.6-0.6,6.1-0.7
		c0.4-0.2,2.5-0.6-0.8-0.4l-0.6,0.2c-1.1,0-0.9,0-1.3,0c-4.3,0.4-4.9,0.3-8,0.4c0,0,0.1,0,0,0c-2.1,0.3-5,0.4-6.7,0.4l-0.7,0
		c-1-0.1-4.9,0.4-3.6,0.1c-8.8,0.4-18.9,0.2-28.7-0.5c-0.7,0-2.6-0.1-4-0.2c-1.4-0.1-2.4-0.2-1.4,0c-2.4-0.5-9.7-1.3-12.4-1.7
		c0.1,0,0.2,0,0.6,0.1c-2.6-0.5-4.1-0.7-5.7-0.8c-1.5-0.2-3-0.4-5.4-1c-0.4,0-2.6-0.3-5.1-0.8c-2.4-0.5-5.1-1.1-6.5-1.2
		c-0.6-0.2-0.8-0.3-0.5-0.3c-8.7-2-18.1-4.6-25.2-7c-0.8-0.2-1.6-0.5-2.4-0.7c-0.8-0.3-1.7-0.6-2.6-0.9c-1.7-0.6-3.5-1.3-5.3-1.9
		c-3.5-1.3-6.9-2.7-9.6-3.6c-2.1-0.9-4.8-2.1-7.8-3.4c-1.5-0.6-3-1.4-4.5-2.1c-1.5-0.7-3-1.4-4.4-2.1l0.6,0.2
		c-1.6-0.8-3.3-1.7-5-2.6c-1.7-1-3.4-1.9-5-2.9c-3.2-2-6.1-3.9-8.1-5.3c-0.8-0.8-1.8-1.6-2.9-2.5c-1.1-1-2.2-2-3.4-3
		c-0.9-0.8-2-1.8-3.2-3c-0.6-0.6-1.2-1.3-1.8-1.9c-0.6-0.7-1.3-1.4-1.9-2.1c-1.2-1.5-2.6-3.1-3.6-4.8c-0.6-0.8-1.2-1.6-1.6-2.5
		c-0.5-0.8-1-1.7-1.4-2.4c-0.1-0.3-0.4-0.7-0.6-1.3c-0.3-0.6-0.6-1.2-0.8-1.9c-0.3-0.6-0.6-1.3-0.8-1.7c-0.2-0.5-0.3-0.9-0.3-1
		c-0.4-1.2-0.9-2.4-1.3-3.6c-0.3-1.3-0.6-2.6-0.9-3.9c-0.3-1.3-0.4-2.7-0.6-4c-0.1-1.4-0.2-2.7-0.2-4.1c0-5.6,1-11.3,3-16.8
		c1.9-5.5,4.8-10.7,8.2-15.3c3.4-4.7,7.3-8.8,11.5-12.3L23,35.6c1-1,2.2-2,3.3-3c1.2-1,2.4-2,3.5-2.8c0.2-0.1,0.2-0.1-0.3,0.2
		c3.3-2.3,6.6-4,10.1-5.9c0,0,0,0-0.6,0.4c3.3-1.8,7-3.3,11.1-5.1l0.2,0l2.6-1.1c0,0.1-0.1,0.2-1.5,0.7c8-3.1,16.3-5.6,24.8-7.7
		c4.2-1,8.5-1.9,12.8-2.9c2.1-0.5,4.3-0.9,6.5-1.3c2.2-0.4,4.3-0.8,6.5-1.2c17.4-3,35.1-4.8,52.8-5.2l-1.3,0.1l6.9-0.3
		c0,0-0.4,0.1-0.7,0.1c4.4,0,8.8,0.1,13.3,0.1c2.2,0,4.4,0.1,6.6,0.2c2.2,0.1,4.3,0.2,6.5,0.3c0,0-1.3,0-0.1,0.1
		c3.2,0,5.7,0.3,7.8,0.5c2.1,0.2,3.9,0.4,5.5,0.3c0.3,0,0.5,0.1-0.2,0.1c17.5,1.5,35.3,4.4,52.5,8.6c14.4,3.1,30.2,8,44.5,13.3
		l-0.1,0c9.3,3.3,18.8,7.4,27.6,12.7c8.8,5.4,16.9,12.2,22.5,20.8c2.3,3.6,3.9,6.8,5.2,10.1c0.3,0.8,0.6,1.7,0.9,2.5l0.2,0.6
		l0.2,0.7c0.1,0.4,0.2,0.9,0.3,1.3c0.2,0.9,0.5,1.8,0.7,2.8c0.2,1,0.3,2,0.5,3.1l0,0.2l0.2,1.3l0.1,1.4c0.1,0.9,0.1,1.8,0.2,2.7
		c0.1,0.9,0,1.8,0,2.8c0,0.9,0,1.9-0.1,2.8c-0.1,0.9-0.2,1.9-0.3,2.8c-0.1,0.9-0.2,1.9-0.3,2.8c-0.4,1.9-0.6,3.8-1.1,5.6
		c-1.8,7.4-4.8,14.6-8.4,21.2l0.4-1c-0.4,1.1-1.7,3-2.7,4.6c-1,1.6-1.9,2.7-1.5,2.5l-1.6,2.1c-6.1,8.2-12.7,13.7-22.8,21l0.6-0.5
		c-2.7,1.9-6,4-8.1,5.2c0.3-0.2,0.2-0.1,0.8-0.5c-9.1,5.1-19.5,10.3-29.8,14.2l1.1-0.6c-2.4,1-6,2.4-9.7,3.7
		c-3.7,1.3-7.8,2.5-11.1,3.7l0.4-0.2l-3.3,1.2l-0.1-0.1c-4.3,1.5-8.6,2.6-12.8,3.9c-2.1,0.6-4.2,1.2-6.3,1.9
		C235.6,183.9,233.5,184.4,231.3,185z"/>
	<path d="M140.7,199C140.7,199,140.8,199,140.7,199C141.1,198.9,140.9,198.9,140.7,199z"/>
	<path d="M184.2,161.9c0.4,0,0.8,0,1.1,0C185.3,161.8,184.6,161.9,184.2,161.9z"/>
</g>
</svg>
