<svg id="Home_Icon_2" data-name="Home Icon 2" xmlns="http://www.w3.org/2000/svg" width="178.113" height="43.716" viewBox="0 0 178.113 43.716">
  <g id="Layer_1" data-name="Layer 1" transform="translate(0 0)">
    <path id="Path_7" data-name="Path 7" d="M475.482,32.517a28.92,28.92,0,0,0-31.658,0A37.244,37.244,0,0,0,432.016,44.98l-.426.725.426.723a37.231,37.231,0,0,0,11.808,12.463,28.9,28.9,0,0,0,31.658,0A37.231,37.231,0,0,0,487.29,46.428l.426-.723-.426-.725A37.325,37.325,0,0,0,475.482,32.517ZM474.715,45.7a15.063,15.063,0,1,1-15.054-15.067A15.065,15.065,0,0,1,474.715,45.7Zm-39.815,0a34.236,34.236,0,0,1,10.452-10.8l.047-.03a17.869,17.869,0,0,0,0,21.641l-.047-.028A34.017,34.017,0,0,1,434.9,45.709Zm39.056,10.8-.048.028a17.869,17.869,0,0,0,0-21.641l.048.03a34.026,34.026,0,0,1,10.451,10.8A34.239,34.239,0,0,1,473.955,56.5Z" transform="translate(-370.294 -23.851)" fill="#fff"/>
    <path id="Path_8" data-name="Path 8" d="M585.386,117.3a7.261,7.261,0,0,0,6.836-9.689,2.972,2.972,0,0,1-1.082.2,3.007,3.007,0,0,1-3.007-3.006,2.963,2.963,0,0,1,.318-1.341,7.256,7.256,0,1,0-3.065,13.836Z" transform="translate(-496.026 -88.186)" fill="#fff"/>
    <path id="Path_9" data-name="Path 9" d="M991.517,23.152a11.111,11.111,0,0,0-5.863-7.348,11.852,11.852,0,0,0-8.479-.548,15.63,15.63,0,0,0-6.851,4.086,15.158,15.158,0,0,0-6.789-4.05,12.156,12.156,0,0,0-8.581.513,11.117,11.117,0,0,0-5.863,7.348c-1.254,4.726-.031,10.335,3.355,15.39,1.8,2.681,5.209,6.1,10.142,10.16,1.937,1.593,3.693,2.935,4.813,3.779,2.365,1.773,2.375,1.773,2.906,1.774s.535,0,2.9-1.774c1.126-.845,2.876-2.186,4.812-3.78,4.934-4.06,8.347-7.478,10.142-10.159C991.548,33.489,992.771,27.88,991.517,23.152ZM985.8,36.959c-3.409,5.087-12.782,12.139-15.5,14.13-2.723-1.989-12.09-9.041-15.5-14.13-2.887-4.31-4-9.2-2.968-13.078a8.347,8.347,0,0,1,4.381-5.532,7.927,7.927,0,0,1,3.525-.754,11.2,11.2,0,0,1,3.028.426,12.169,12.169,0,0,1,6.405,4.333l1.106,1.466,1.136-1.438c3.737-4.709,9.53-5.752,12.972-4.039a8.346,8.346,0,0,1,4.383,5.532c1.025,3.885-.084,8.775-2.973,13.086Z" transform="translate(-813.885 -12.639)" fill="#fff"/>
    <path id="Path_10" data-name="Path 10" d="M21.849,0A21.857,21.857,0,1,0,37.3,6.4,21.852,21.852,0,0,0,21.849,0ZM41.12,23.014l-13.3-7.681H40.031a19.246,19.246,0,0,1,1.136,6.524C41.154,22.24,41.143,22.628,41.12,23.014ZM27.1,16.56l1.946,3.37v3.854L27.1,27.149l-3.3,1.9H19.923L16.544,27.1l-1.889-3.267V19.921l1.913-3.313,3.374-1.949h3.866Zm9.48,17.772a19.468,19.468,0,0,1-6.114,4.807V23.74ZM30.237,19.15l10.615,6.137a19.3,19.3,0,0,1-2.9,7.233Zm-1.863,8.645V40.038a19.181,19.181,0,0,1-7.7,1.1Zm-3.856,2.49L18.41,40.863a19.3,19.3,0,0,1-7.2-2.891ZM20,30.475,9.386,36.605a19.462,19.462,0,0,1-4.817-6.13Zm-17.421-9.8,13.335,7.7H3.673a19.234,19.234,0,0,1-1.136-6.522q.006-.58.043-1.173ZM7.1,9.4a19.472,19.472,0,0,1,6.134-4.83V20.031ZM13.41,24.514l-10.561-6.1a19.3,19.3,0,0,1,2.886-7.193Zm1.926-8.6V3.675a19.215,19.215,0,0,1,6.519-1.129q.584,0,1.175.037Zm3.82-2.438L25.287,2.851A19.319,19.319,0,0,1,32.52,5.759Zm4.594-.234L34.333,7.13a19.462,19.462,0,0,1,4.8,6.109Z" transform="translate(0.003 0.001)" fill="#fff"/>
  </g>
</svg>
